<?xml version="1.0" encoding="UTF-8" standalone="no"?>
<svg width="259px" height="259px" viewBox="0 0 259 259" version="1.1" xmlns="http://www.w3.org/2000/svg" xmlns:xlink="http://www.w3.org/1999/xlink">
    <!-- Generator: Sketch 3.7.2 (28276) - http://www.bohemiancoding.com/sketch -->
    <title>favicon</title>
    <desc>Created with Sketch.</desc>
    <defs></defs>
    <g id="Page-1" stroke="none" stroke-width="1" fill="none" fill-rule="evenodd">
        <g id="favicon" fill="#000000">
            <path d="M0.27,122.12 C1.81,126.12 3.42,130.12 4.88,134.12 C9.62666667,147.293333 14.3333333,160.466667 19,173.64 C19.38,174.7 19.67,175.8 19.95,176.89 C20.0688113,177.809327 20.8431858,178.50286 21.77,178.52 C25.71,178.57 29.65,178.6 33.58,178.52 C34.230359,178.338137 34.7567192,177.859965 35,177.23 C39.6,164.023333 44.1666667,150.806667 48.7,137.58 C54.4066667,121.04 60.12,104.5 65.84,87.96 C65.8742807,87.752436 65.9527139,87.554648 66.07,87.38 C66.3023247,87.1995548 66.5538459,87.0452885 66.82,86.92 C66.9934928,87.1171279 67.1230307,87.3489325 67.2,87.6 C67.28,90.03 67.33,92.47 67.38,94.91 C67.58,104.483333 67.7766667,114.056667 67.97,123.63 C68.13,131.78 68.29,139.93 68.37,148.07 C68.43,153.78 68.37,159.49 68.37,165.2 L68.37,165.83 C68.12,169.08 67.43,169.83 64.19,170.19 C62.06,170.42 59.93,170.62 57.79,170.73 C56.73,170.79 56.22,171.21 56.28,172.25 C56.36,173.63 56.45,175.01 56.58,176.39 C56.5616484,176.787068 56.7288066,177.170128 57.0323946,177.426709 C57.3359827,177.68329 57.741544,177.78427 58.13,177.7 C63.8,177.59 69.47,177.55 75.13,177.51 C81.52,177.51 87.91,177.4 94.29,177.43 C101.136667,177.43 107.983333,177.52 114.83,177.7 C116.12,177.7 116.57,177.25 116.54,176.05 C116.51,174.85 116.54,173.45 116.54,172.14 C116.593365,171.74293 116.454714,171.344147 116.166527,171.06583 C115.87834,170.787512 115.47497,170.662836 115.08,170.73 C112.69,170.65 110.3,170.48 107.92,170.25 C105.76,170.04 105,169.42 104.74,167.25 C104.35,164.01 104.05,160.74 103.95,157.47 C103.6,146.01 103.34,134.55 103.08,123.09 C102.91,115.87 102.79,108.64 102.67,101.42 C102.59,96.84 102.54,92.26 102.48,87.69 C102.458279,87.2702808 102.458279,86.8497192 102.48,86.43 C102.74,83.61 103.18,83.16 106.03,83.01 C108.46,82.88 110.9,82.79 113.33,82.75 C113.632109,82.8215179 113.9503,82.7486628 114.191192,82.5528159 C114.432083,82.3569691 114.56835,82.0603466 114.56,81.75 C114.61,80.58 114.77,79.41 114.77,78.24 C114.77,76.45 114.54,76.24 112.77,76.24 C107.77,76.14 102.86,76.02 97.9,75.94 C87.5266667,75.7666667 77.1533333,75.6066667 66.78,75.46 C65.27,75.46 63.78,75.59 62.25,75.62 C61.3907787,75.5930747 60.6531497,76.2265679 60.55,77.08 C56.3,90.88 52.06,104.69 47.69,118.46 C45.88,124.16 43.76,129.77 41.76,135.46 C41.5407053,135.854721 41.2606064,136.212438 40.93,136.52 C40.6304749,136.170778 40.3721104,135.788265 40.16,135.38 C33.0133333,116.366667 25.8766667,97.3666667 18.75,78.38 C17.95,76.25 17.6,76.08 15.27,76.08 L11.34,76.08 C11.57,75.5 11.73,75.08 11.94,74.59 C25.5584831,45.3985547 49.5780798,22.3381729 79.3,9.92 C97.6180868,2.3044439 117.44288,-0.993985618 137.24,0.28 C192.994086,3.87807287 240.110605,42.9239304 254,97.04 C255.807123,104.153076 257.014686,111.405143 257.61,118.72 C258.19307,126.133155 258.162967,133.5818 257.52,140.99 C257.38,142.7 257.13,144.41 256.86,146.11 C256.720951,146.476309 256.51778,146.814929 256.26,147.11 C255.977605,146.813848 255.741605,146.476705 255.56,146.11 C254.11,141.11 252.81,136 251.25,131.01 C245.64,113.12 240,95.3 234.34,77.46 C234.168811,76.7063193 233.50283,76.1685709 232.73,76.16 C228.73,75.81 224.8,75.42 220.83,75.16 C218.7,75.03 216.54,75.16 214.4,75.16 C213.585891,75.0862429 212.852906,75.6534332 212.72,76.46 C205.64,99.74 197.65,122.71 189.62,145.67 C189.393812,146.065454 189.103144,146.420339 188.76,146.72 C188.446472,146.461843 188.185125,146.14619 187.99,145.79 C182.76,127.99 177.59,110.17 173.45,92.08 C173.082391,90.4880045 172.874693,88.8632754 172.83,87.23 C172.704566,86.2906451 172.985312,85.3423432 173.601905,84.6226665 C174.218498,83.9029898 175.112521,83.4801215 176.06,83.46 C178.47,83.12 180.89,82.87 183.32,82.71 C183.650558,82.7672362 183.988945,82.6676103 184.235755,82.4403886 C184.482564,82.213167 184.609769,81.8841535 184.58,81.55 C184.58,80.04 184.48,78.55 184.45,77.03 C184.45,76.12 183.93,75.95 183.13,75.97 C179.06,76.12 175,76.12 170.91,76.12 L140.39,76.12 C134.636667,76.12 128.883333,76.03 123.13,75.85 C122.682656,75.7484958 122.213772,75.8677572 121.86929,76.1706635 C121.524809,76.4735697 121.346551,76.923347 121.39,77.38 C121.31,78.76 121.39,80.14 121.32,81.53 C121.32,82.24 121.69,82.39 122.32,82.53 C124.51,82.89 126.7,83.26 128.86,83.76 C131.447213,84.2436479 133.57467,86.0808238 134.43,88.57 C135.84,92.64 137.07,96.77 138.35,100.88 C144.483333,120.586667 150.613333,140.293333 156.74,160 C158.45,165.48 160.25,170.92 161.9,176.42 C162.13981,177.796002 163.323438,178.807542 164.72,178.83 C168.16,178.98 171.6,179.15 175.04,179.07 C178.3,178.99 181.56,178.62 184.81,178.34 C185.716948,178.260116 186.466537,177.599668 186.66,176.71 C192.98,158.563333 199.313333,140.42 205.66,122.28 C206.84,118.88 207.8,115.41 208.9,111.98 C209.107661,111.576841 209.377649,111.208983 209.7,110.89 C210.047077,111.169031 210.341678,111.507652 210.57,111.89 C214.64,124.57 218.81,137.21 222.69,149.95 C225.38,158.8 227.69,167.77 230.1,176.7 C230.244075,177.675205 231.116954,178.373508 232.1,178.3 C236.72,178.3 241.33,178.35 245.95,178.38 L248.08,178.38 C229.6,226.11 176.36,264.76 114.08,257.38 C41.41,248.66 -3.92,185.12 0.27,122.12 L0.27,122.12 Z" id="Shape"></path>
        </g>
    </g>
</svg>