<?xml version="1.0" standalone="no"?>
<!DOCTYPE svg PUBLIC "-//W3C//DTD SVG 20010904//EN"
 "http://www.w3.org/TR/2001/REC-SVG-20010904/DTD/svg10.dtd">
<svg version="1.0" xmlns="http://www.w3.org/2000/svg"
 width="700.000000pt" height="700.000000pt" viewBox="0 0 700.000000 700.000000"
 preserveAspectRatio="xMidYMid meet">
<metadata>
Created by potrace 1.11, written by Peter Selinger 2001-2013
</metadata>
<g transform="translate(0.000000,700.000000) scale(0.100000,-0.100000)"
fill="#000000" stroke="none">
<path d="M3278 6995 c-2 -1 -39 -5 -83 -9 -88 -7 -144 -13 -190 -21 -16 -2
-48 -7 -70 -10 -22 -3 -62 -10 -90 -16 -27 -6 -63 -13 -80 -15 -16 -3 -88 -20
-160 -39 -376 -99 -695 -240 -1021 -450 -81 -53 -263 -184 -290 -210 -6 -5
-30 -26 -54 -45 -70 -57 -206 -186 -311 -296 -139 -147 -285 -339 -408 -536
-64 -101 -211 -377 -211 -394 0 -5 34 -10 76 -11 60 -1 81 -6 95 -20 10 -10
101 -243 204 -518 103 -275 190 -509 195 -520 5 -11 30 -76 55 -145 25 -69 50
-135 56 -148 5 -13 25 -67 45 -120 49 -134 65 -165 80 -149 19 20 163 440 279
817 37 118 98 316 137 440 38 124 79 256 91 294 14 47 27 71 41 77 30 12 1374
-4 1419 -17 15 -5 17 -16 16 -80 -1 -40 -7 -78 -13 -82 -6 -5 -42 -9 -79 -11
-199 -5 -223 -12 -233 -66 -8 -45 4 -741 31 -1775 7 -281 18 -425 37 -473 15
-38 42 -47 162 -54 147 -8 146 -7 146 -95 0 -40 -4 -79 -9 -87 -8 -12 -35 -14
-143 -12 -170 4 -980 4 -1246 1 -122 -2 -207 1 -213 7 -5 5 -10 45 -12 88 -2
91 -7 88 129 99 145 12 163 19 182 75 11 32 10 792 -2 1276 -10 400 -18 803
-17 833 2 46 -7 72 -23 66 -8 -3 -16 -15 -19 -27 -3 -12 -19 -62 -37 -112 -32
-90 -164 -471 -265 -765 -59 -170 -80 -231 -357 -1030 -22 -63 -41 -119 -42
-125 -2 -5 -6 -17 -9 -25 -4 -8 -33 -93 -66 -188 -33 -96 -67 -179 -76 -186
-11 -8 -68 -12 -185 -11 -172 1 -200 7 -200 42 0 15 -382 1088 -469 1318 -27
71 -53 131 -59 133 -10 3 -9 -418 2 -488 3 -19 8 -61 10 -94 3 -32 8 -66 10
-75 3 -9 7 -38 11 -66 3 -27 10 -68 15 -90 5 -22 11 -51 13 -65 28 -156 124
-463 203 -648 76 -176 124 -267 269 -510 40 -67 182 -266 220 -308 6 -6 28
-33 50 -60 111 -136 340 -364 445 -444 18 -14 38 -30 44 -35 6 -6 47 -38 91
-71 343 -259 770 -465 1190 -574 127 -33 290 -67 355 -75 25 -3 72 -10 106
-15 206 -33 638 -35 874 -4 47 6 251 40 285 48 230 51 486 131 644 203 398
179 702 375 985 633 304 278 555 601 733 945 46 89 133 283 133 296 0 5 -101
9 -223 9 -201 0 -226 2 -240 18 -8 9 -36 96 -62 192 -27 96 -68 245 -92 330
-25 85 -47 164 -50 175 -6 25 -56 189 -82 270 -11 33 -35 110 -54 170 -183
579 -222 687 -241 657 -3 -5 -28 -80 -56 -168 -46 -140 -110 -330 -127 -374
-3 -8 -7 -19 -9 -25 -4 -15 -124 -358 -131 -375 -3 -8 -7 -19 -8 -25 -4 -12
-127 -367 -160 -455 -13 -36 -46 -132 -74 -213 -28 -81 -57 -154 -64 -162 -20
-20 -151 -30 -377 -30 -211 0 -244 5 -260 35 -11 20 -135 411 -317 1000 -62
202 -84 272 -141 455 -28 88 -82 261 -121 385 -119 382 -173 552 -186 584 -28
65 -95 108 -189 120 -27 4 -52 9 -55 11 -3 1 -23 6 -45 9 -21 4 -42 9 -47 12
-14 8 -11 150 4 161 14 11 1673 10 1684 -1 4 -4 9 -41 10 -81 4 -89 2 -90
-109 -99 -133 -10 -151 -15 -181 -47 -42 -45 -37 -87 48 -435 52 -212 150
-577 196 -729 17 -55 36 -122 44 -150 8 -27 30 -104 50 -171 19 -67 35 -127
35 -135 0 -8 7 -23 15 -34 13 -17 17 -17 29 -5 7 8 36 83 64 165 28 83 90 263
138 400 171 496 282 833 396 1200 22 72 45 136 51 144 9 11 41 12 167 8 229
-9 368 -23 386 -38 7 -6 34 -77 59 -157 26 -81 64 -201 85 -267 21 -66 64
-201 95 -300 109 -344 126 -400 135 -425 24 -68 105 -336 154 -510 64 -224 73
-247 87 -233 12 12 16 32 24 124 4 40 9 82 11 93 5 25 5 447 0 496 -2 19 -7
71 -11 115 -4 44 -9 89 -11 100 -3 11 -7 37 -9 59 -2 21 -9 64 -15 95 -6 31
-14 70 -16 86 -25 146 -129 484 -204 660 -39 92 -147 310 -188 380 -76 132
-198 313 -266 398 -390 487 -831 832 -1357 1060 -279 122 -625 223 -856 252
-26 4 -55 8 -63 10 -8 2 -46 7 -85 11 -38 3 -79 8 -90 11 -21 5 -512 13 -517
8z"/>
</g>
</svg>
